<?xml version="1.0" encoding="UTF-8" standalone="no"?>
<!-- Created with Inkscape (http://www.inkscape.org/) -->

<svg
   xmlns:dc="http://purl.org/dc/elements/1.1/"
   xmlns:cc="http://creativecommons.org/ns#"
   xmlns:rdf="http://www.w3.org/1999/02/22-rdf-syntax-ns#"
   xmlns:svg="http://www.w3.org/2000/svg"
   xmlns="http://www.w3.org/2000/svg"
   xmlns:sodipodi="http://sodipodi.sourceforge.net/DTD/sodipodi-0.dtd"
   xmlns:inkscape="http://www.inkscape.org/namespaces/inkscape"
   width="64px"
   height="64px"
   id="svg2876"
   version="1.1"
   inkscape:version="0.47pre4 r22446"
   sodipodi:docname="tray_icon_red.svg">
  <defs
     id="defs2878">
    <inkscape:perspective
       sodipodi:type="inkscape:persp3d"
       inkscape:vp_x="0 : 32 : 1"
       inkscape:vp_y="0 : 1000 : 0"
       inkscape:vp_z="64 : 32 : 1"
       inkscape:persp3d-origin="32 : 21.333333 : 1"
       id="perspective2884" />
    <inkscape:perspective
       id="perspective2896"
       inkscape:persp3d-origin="0.5 : 0.33333333 : 1"
       inkscape:vp_z="1 : 0.5 : 1"
       inkscape:vp_y="0 : 1000 : 0"
       inkscape:vp_x="0 : 0.5 : 1"
       sodipodi:type="inkscape:persp3d" />
    <inkscape:perspective
       id="perspective2918"
       inkscape:persp3d-origin="0.5 : 0.33333333 : 1"
       inkscape:vp_z="1 : 0.5 : 1"
       inkscape:vp_y="0 : 1000 : 0"
       inkscape:vp_x="0 : 0.5 : 1"
       sodipodi:type="inkscape:persp3d" />
  </defs>
  <sodipodi:namedview
     id="base"
     pagecolor="#ffffff"
     bordercolor="#666666"
     borderopacity="1.0"
     inkscape:pageopacity="0.0"
     inkscape:pageshadow="2"
     inkscape:zoom="5.5"
     inkscape:cx="4.0909091"
     inkscape:cy="21.727274"
     inkscape:current-layer="layer1"
     showgrid="true"
     inkscape:document-units="px"
     inkscape:grid-bbox="true"
     inkscape:window-width="1440"
     inkscape:window-height="857"
     inkscape:window-x="0"
     inkscape:window-y="0"
     inkscape:window-maximized="1" />
  <metadata
     id="metadata2881">
    <rdf:RDF>
      <cc:Work
         rdf:about="">
        <dc:format>image/svg+xml</dc:format>
        <dc:type
           rdf:resource="http://purl.org/dc/dcmitype/StillImage" />
        <dc:title></dc:title>
      </cc:Work>
    </rdf:RDF>
  </metadata>
  <g
     id="layer1"
     inkscape:label="Layer 1"
     inkscape:groupmode="layer">
    <path
       transform="matrix(1.0787401,0,0,1.0619835,-2.5626357,-3.3132985)"
       sodipodi:type="arc"
       id="path2886-1"
       sodipodi:cx="32.545456"
       sodipodi:cy="31.454546"
       sodipodi:rx="23.09091"
       sodipodi:ry="22"
       d="m 55.636366,31.454546 a 23.09091,22 0 1 1 -46.18182,0 23.09091,22 0 1 1 46.18182,0 z"
       style="fill:#b3b3b3" />
    <path
       sodipodi:type="arc"
       id="path2886"
       sodipodi:cx="32.545456"
       sodipodi:cy="31.454546"
       sodipodi:rx="23.09091"
       sodipodi:ry="22"
       d="m 55.636366,31.454546 a 23.09091,22 0 1 1 -46.18182,0 23.09091,22 0 1 1 46.18182,0 z"
       style="fill:#808080" />
    <path
       transform="matrix(0.73228347,0,0,0.55785123,8.8947733,23.634861)"
       sodipodi:type="arc"
       id="path2886-3"
       sodipodi:cx="32.545456"
       sodipodi:cy="31.454546"
       sodipodi:rx="23.09091"
       sodipodi:ry="22"
       d="m 55.636366,31.454546 a 23.09091,22 0 1 1 -46.18182,0 23.09091,22 0 1 1 46.18182,0 z"
       style="fill:#000000" />
    <text
       xml:space="preserve"
       style="font-size:40px;font-style:normal;font-variant:normal;font-weight:normal;font-stretch:normal;fill:#cccccc;fill-opacity:1;stroke:none;font-family:DejaVu Serif;-inkscape-font-specification:DejaVu Serif"
       x="13.272727"
       y="43.090908"
       id="text2932"><tspan
         sodipodi:role="line"
         x="13.272727"
         y="43.090908"
         style="font-style:normal;font-variant:normal;font-weight:normal;font-stretch:normal;fill:#cccccc;font-family:DejaVu Serif;-inkscape-font-specification:DejaVu Serif"
         id="tspan2936" /></text>
    <path
       style="fill:#ffffff;stroke:none"
       id="path2948"
       d="m 11.872366,43.428901 c 1.239776,-1.022156 2.211583,-2.340032 3.213922,-3.586187 1.668206,-2.034681 2.997501,-4.221047 4.138497,-6.584749 0.985331,-1.967859 1.669763,-4.060074 2.381268,-6.136406 0.62888,-1.94406 1.111981,-3.934081 1.598284,-5.918008 0.301296,-1.297485 0.502953,-2.613648 0.694666,-3.930702 0.120099,-0.880099 0.176827,-1.767271 0.258634,-2.651509 0.0074,-0.496522 0.159945,-1.032786 1.14e-4,-1.516632 1.574678,-0.748029 3.111516,-1.581559 4.724034,-2.244088 0.08966,-0.03684 0.02645,0.19212 0.03527,0.28865 0.01109,0.121336 0.01723,0.243079 0.02445,0.364707 0.05159,0.869394 0.154197,1.723642 0.263068,2.588291 0.448225,3.487247 1.234618,6.918816 2.00202,10.346353 0.502971,2.063885 0.973043,4.142469 1.608219,6.171416 0.240299,0.767586 0.490034,1.425912 0.764673,2.177715 0.511328,1.131067 0.876719,2.498505 1.690134,3.463615 0.04482,0.02886 0.08165,0.07939 0.134473,0.08657 0.02757,0.0037 0.08226,-0.07326 0.05755,-0.06047 -1.513851,0.783221 -3.022417,1.576657 -4.528958,2.373848 -0.03949,0.0209 0.09529,-0.01232 0.126506,-0.04427 0.0779,-0.07975 0.156779,-0.39439 0.177965,-0.463329 0.218652,-0.993993 0.460949,-1.982496 0.69393,-2.973244 0.384978,-1.968602 0.662667,-3.958309 0.934789,-5.945487 0.319586,-2.383427 0.656075,-4.764915 1.095568,-7.129519 0.327374,-1.836567 0.658295,-3.673048 0.958638,-5.514282 0.126922,-0.897234 0.277742,-1.790615 0.361212,-2.693295 0.01216,-0.398216 0.05102,-0.788153 0.130606,-1.177983 0.385912,-2.165394 -3.283884,0.768907 4.720683,-2.7535133 0.03033,-0.013345 0.124319,0.2591643 0.2122,0.4987383 0.292412,0.880182 0.45767,1.791705 0.600157,2.705929 0.381213,2.178048 0.515111,4.38701 0.755563,6.58283 0.414759,3.482169 0.920612,6.951099 1.607123,10.390196 0.783183,3.953787 2.208392,7.727166 3.790683,11.419711 0.835995,1.758587 1.694109,3.532757 2.859071,5.103182 0.530268,0.714827 0.719062,0.882317 1.308439,1.510974 0.739367,0.661551 0.37399,0.366141 1.087332,0.897003 0,0 -4.234895,2.64446 -4.234895,2.64446 l 0,0 C 47.459254,51.091632 47.79755,51.433313 47.110667,50.687188 46.532106,49.983902 46.385032,49.843139 45.871962,49.052271 44.79153,47.386848 44.00819,45.5505 43.216375,43.737599 41.71741,39.984655 40.30941,36.179089 39.412442,32.230752 39.27509,31.599513 39.128738,30.970166 39.000387,30.337037 38.43471,27.546673 38.063822,24.72132 37.589134,21.915156 37.27496,19.778106 37.07886,17.617059 36.524596,15.523385 c -0.176538,-0.860966 -0.34585,-1.728815 -0.688662,-2.542827 -0.02795,-0.06425 -0.05039,-0.1312 -0.08386,-0.192762 -0.02077,-0.0382 -0.115322,-0.08263 -0.07784,-0.104669 1.491405,-0.87677 3.034515,-1.662752 4.53854,-2.517693 0.02426,-0.01379 -0.06262,-0.03519 -0.08229,-0.0154 -0.06893,0.06937 0.02488,0.227251 -0.04209,0.290347 -0.06164,0.396371 -0.207687,0.771516 -0.204053,1.178478 -0.129391,0.942629 -0.335378,1.87112 -0.511206,2.805668 -0.388714,1.864498 -0.792981,3.724916 -1.126619,5.600593 -0.480497,2.35002 -0.825672,4.724515 -1.113972,7.10536 -0.244338,1.957543 -0.470855,3.916929 -0.717378,5.874114 -0.15605,0.979202 -0.436619,1.934926 -0.541843,2.923561 -0.03878,0.22052 -0.06191,0.317141 -0.07828,0.534296 -0.0061,0.0804 0.06053,0.201051 -0.0091,0.2417 -2.920349,1.704956 -3.726453,3.894841 -4.944992,2.154349 -0.641414,-1.180811 -0.976907,-2.500088 -1.453196,-3.750151 -0.230824,-0.743121 -0.478072,-1.511336 -0.67409,-2.263679 -0.54212,-2.080729 -0.923601,-4.201951 -1.420247,-6.293307 -0.74943,-3.406316 -1.529428,-6.805485 -2.300211,-10.206991 -0.195969,-0.814071 -0.40065,-1.625378 -0.577614,-2.443708 -0.02425,-0.112152 -0.05084,-0.223794 -0.07459,-0.336053 -0.01072,-0.05069 -0.07414,-0.127645 -0.02881,-0.15273 1.529518,-0.846409 3.105464,-1.606061 4.658196,-2.409091 -0.03526,-0.02625 -0.06736,-0.100108 -0.105781,-0.07874 -0.04486,0.02495 -0.01886,0.10097 -0.02568,0.151852 -0.05667,0.423287 -0.06153,0.852133 -0.112486,1.276109 -0.101553,0.901193 -0.191871,1.802456 -0.298435,2.702895 -0.235982,1.358476 -0.510268,2.709335 -0.838808,4.048749 -0.515623,2.003999 -1.046862,4.007119 -1.650137,5.986215 -0.710842,2.104879 -1.372575,4.238049 -2.407925,6.21327 -1.140627,2.346179 -2.463248,4.597463 -4.063996,6.663393 -0.907408,1.183155 -1.803029,2.376347 -2.758397,3.521487 0,0 -4.836391,1.940882 -4.836391,1.940882 z" />
  </g>
</svg>
